<svg xmlns="http://www.w3.org/2000/svg"
 xmlns:xlink="http://www.w3.org/1999/xlink"
 version="1.2" baseProfile="tiny"
 text-rendering="geometricPrecision"
 preserveAspectRatio="xMidYMid meet"
 font-weight="normal"
 font-family="Helvetica"
 width="302" height="302"
 viewBox="0 0 112.20 210.00">
<rect x="0" y="0" width="112.20" height="210.00"
 fill="rgb(255, 255, 255)" opacity="0.0"/>
<line x1="81.96" y1="44.95" x2="55.95" y2="30.00" stroke="rgb(0, 0, 0)" /><line x1="56.25" y1="180.00" x2="30.24" y2="165.05" stroke="rgb(0, 0, 0)" /><line x1="56.07" y1="90.00" x2="56.13" y2="120.00" stroke="rgb(0, 0, 0)" /><line x1="82.14" y1="134.95" x2="82.20" y2="164.95" stroke="rgb(0, 0, 0)" /><line x1="82.20" y1="164.95" x2="56.25" y2="180.00" stroke="rgb(0, 0, 0)" /><line x1="56.13" y1="120.00" x2="82.14" y2="134.95" stroke="rgb(0, 0, 0)" /><line x1="56.07" y1="90.00" x2="82.02" y2="74.95" stroke="rgb(0, 0, 0)" /><line x1="30.00" y1="45.05" x2="30.06" y2="75.05" stroke="rgb(0, 0, 0)" /><line x1="55.95" y1="30.00" x2="30.00" y2="45.05" stroke="rgb(0, 0, 0)" /><line x1="30.06" y1="75.05" x2="56.07" y2="90.00" stroke="rgb(0, 0, 0)" /><line x1="30.18" y1="135.05" x2="56.13" y2="120.00" stroke="rgb(0, 0, 0)" /><line x1="30.24" y1="165.05" x2="30.18" y2="135.05" stroke="rgb(0, 0, 0)" /><line x1="82.02" y1="74.95" x2="81.96" y2="44.95" stroke="rgb(0, 0, 0)" /><g>
 <rect x="81.96" y="44.95" width="10" height="10" rx="5.0" ry="5.0" fill="rgb(240, 240, 255)" />
 <text x="81.96" y="54.95" font-size="10" fill="rgb(0, 0, 0)">2</text>
</g>
<g>
 <rect x="30.24" y="165.05" width="10" height="10" rx="5.0" ry="5.0" fill="rgb(240, 240, 255)" />
 <text x="30.24" y="175.05" font-size="10" fill="rgb(0, 0, 0)">11</text>
</g>
<g>
 <rect x="56.13" y="120.00" width="10" height="10" rx="5.0" ry="5.0" fill="rgb(240, 240, 255)" />
 <text x="56.13" y="130.00" font-size="10" fill="rgb(0, 0, 0)">7</text>
</g>
<g>
 <rect x="82.20" y="164.95" width="10" height="10" rx="5.0" ry="5.0" fill="rgb(240, 240, 255)" />
 <text x="82.20" y="174.95" font-size="10" fill="rgb(0, 0, 0)">9</text>
</g>
<g>
 <rect x="56.25" y="180.00" width="10" height="10" rx="5.0" ry="5.0" fill="rgb(240, 240, 255)" />
 <text x="56.25" y="190.00" font-size="10" fill="rgb(0, 0, 0)">10</text>
</g>
<g>
 <rect x="82.14" y="134.95" width="10" height="10" rx="5.0" ry="5.0" fill="rgb(240, 240, 255)" />
 <text x="82.14" y="144.95" font-size="10" fill="rgb(0, 0, 0)">8</text>
</g>
<g>
 <rect x="56.07" y="90.00" width="10" height="10" rx="5.0" ry="5.0" fill="rgb(240, 240, 255)" />
 <text x="56.07" y="100.00" font-size="10" fill="rgb(0, 0, 0)">6</text>
</g>
<g>
 <rect x="30.00" y="45.05" width="10" height="10" rx="5.0" ry="5.0" fill="rgb(240, 240, 255)" />
 <text x="30.00" y="55.05" font-size="10" fill="rgb(0, 0, 0)">4</text>
</g>
<g>
 <rect x="55.95" y="30.00" width="10" height="10" rx="5.0" ry="5.0" fill="rgb(240, 240, 255)" />
 <text x="55.95" y="40.00" font-size="10" fill="rgb(0, 0, 0)">3</text>
</g>
<g>
 <rect x="30.06" y="75.05" width="10" height="10" rx="5.0" ry="5.0" fill="rgb(240, 240, 255)" />
 <text x="30.06" y="85.05" font-size="10" fill="rgb(0, 0, 0)">5</text>
</g>
<g>
 <rect x="30.18" y="135.05" width="10" height="10" rx="5.0" ry="5.0" fill="rgb(240, 240, 255)" />
 <text x="30.18" y="145.05" font-size="10" fill="rgb(0, 0, 0)">12</text>
</g>
<g>
 <rect x="82.02" y="74.95" width="10" height="10" rx="5.0" ry="5.0" fill="rgb(240, 240, 255)" />
 <text x="82.02" y="84.95" font-size="10" fill="rgb(0, 0, 0)">1</text>
</g>
</svg>
