<svg xmlns="http://www.w3.org/2000/svg"
 xmlns:xlink="http://www.w3.org/1999/xlink"
 version="1.2" baseProfile="tiny"
 text-rendering="geometricPrecision"
 preserveAspectRatio="xMidYMid meet"
 font-weight="normal"
 font-family="Helvetica"
 width="432" height="432"
 viewBox="0 0 190.03 254.98">
<rect x="0" y="0" width="190.03" height="254.98"
 fill="rgb(255, 255, 255)" opacity="0.0"/>
<line x1="160.01" y1="179.96" x2="160.03" y2="209.96" stroke="rgb(0, 0, 0)" /><line x1="30.07" y1="135.06" x2="56.04" y2="120.04" stroke="rgb(0, 0, 0)" /><line x1="108.05" y1="180.00" x2="82.06" y2="165.02" stroke="rgb(0, 0, 0)" /><line x1="56.09" y1="180.04" x2="30.10" y2="165.06" stroke="rgb(0, 0, 0)" /><line x1="30.00" y1="45.06" x2="55.97" y2="30.04" stroke="rgb(0, 0, 0)" /><line x1="82.06" y1="165.02" x2="56.09" y2="180.04" stroke="rgb(0, 0, 0)" /><line x1="160.03" y1="209.96" x2="134.06" y2="224.98" stroke="rgb(0, 0, 0)" /><line x1="107.98" y1="90.00" x2="108.00" y2="120.00" stroke="rgb(0, 0, 0)" /><line x1="82.03" y1="135.02" x2="108.00" y2="120.00" stroke="rgb(0, 0, 0)" /><line x1="56.04" y1="120.04" x2="82.03" y2="135.02" stroke="rgb(0, 0, 0)" /><line x1="159.94" y1="89.96" x2="133.94" y2="74.98" stroke="rgb(0, 0, 0)" /><line x1="133.99" y1="134.98" x2="159.96" y2="119.96" stroke="rgb(0, 0, 0)" /><line x1="107.98" y1="90.00" x2="81.98" y2="75.02" stroke="rgb(0, 0, 0)" /><line x1="55.97" y1="30.04" x2="81.96" y2="45.02" stroke="rgb(0, 0, 0)" /><line x1="30.10" y1="165.06" x2="30.07" y2="135.06" stroke="rgb(0, 0, 0)" /><line x1="133.94" y1="74.98" x2="107.98" y2="90.00" stroke="rgb(0, 0, 0)" /><line x1="159.96" y1="119.96" x2="159.94" y2="89.96" stroke="rgb(0, 0, 0)" /><line x1="81.98" y1="75.02" x2="56.02" y2="90.04" stroke="rgb(0, 0, 0)" /><line x1="108.05" y1="180.00" x2="134.02" y2="164.98" stroke="rgb(0, 0, 0)" /><line x1="30.02" y1="75.06" x2="30.00" y2="45.06" stroke="rgb(0, 0, 0)" /><line x1="134.06" y1="224.98" x2="108.07" y2="210.00" stroke="rgb(0, 0, 0)" /><line x1="83.09" y1="46.97" x2="92.18" y2="41.71" stroke="rgb(0, 0, 0)" />
<line x1="92.18" y1="41.71" x2="101.26" y2="36.45" stroke="rgb(255, 0, 0)" />
<line x1="80.83" y1="43.07" x2="89.92" y2="37.81" stroke="rgb(0, 0, 0)" />
<line x1="89.92" y1="37.81" x2="99.01" y2="32.56" stroke="rgb(255, 0, 0)" />
<line x1="108.07" y1="210.00" x2="108.05" y2="180.00" stroke="rgb(0, 0, 0)" /><line x1="56.02" y1="90.04" x2="30.02" y2="75.06" stroke="rgb(0, 0, 0)" /><line x1="82.03" y1="135.02" x2="82.06" y2="165.02" stroke="rgb(0, 0, 0)" /><line x1="81.96" y1="45.02" x2="81.98" y2="75.02" stroke="rgb(0, 0, 0)" /><line x1="108.00" y1="120.00" x2="133.99" y2="134.98" stroke="rgb(0, 0, 0)" /><line x1="134.02" y1="164.98" x2="160.01" y2="179.96" stroke="rgb(0, 0, 0)" /><text x="107.93" y="37.00" font-size="14.0"
 fill="rgb(255, 0, 0)" text-anchor="middle" >O</text>
</svg>
