<svg xmlns="http://www.w3.org/2000/svg"
 xmlns:xlink="http://www.w3.org/1999/xlink"
 version="1.2" baseProfile="tiny"
 text-rendering="geometricPrecision"
 preserveAspectRatio="xMidYMid meet"
 font-weight="normal"
 font-family="Helvetica"
 width="302" height="302"
 viewBox="0 0 111.98 120.00">
<rect x="0" y="0" width="111.98" height="120.00"
 fill="rgb(255, 255, 255)" opacity="0.0"/>
<line x1="81.98" y1="45.02" x2="81.96" y2="75.02" stroke="rgb(0, 0, 0)" /><line x1="30.02" y1="44.98" x2="56.02" y2="30.00" stroke="rgb(0, 0, 0)" /><line x1="56.02" y1="30.00" x2="81.98" y2="45.02" stroke="rgb(0, 0, 0)" /><line x1="81.96" y1="75.02" x2="55.97" y2="90.00" stroke="rgb(0, 0, 0)" /><line x1="55.97" y1="90.00" x2="30.00" y2="74.98" stroke="rgb(0, 0, 0)" /><line x1="30.00" y1="74.98" x2="30.02" y2="44.98" stroke="rgb(0, 0, 0)" /><g>
 <rect x="81.98" y="45.02" width="10" height="10" rx="5.0" ry="5.0" fill="rgb(240, 240, 255)" />
 <text x="81.98" y="55.02" font-size="10" fill="rgb(0, 0, 0)">4</text>
</g>
<g>
 <rect x="30.02" y="44.98" width="10" height="10" rx="5.0" ry="5.0" fill="rgb(240, 240, 255)" />
 <text x="30.02" y="54.98" font-size="10" fill="rgb(0, 0, 0)">2</text>
</g>
<g>
 <rect x="56.02" y="30.00" width="10" height="10" rx="5.0" ry="5.0" fill="rgb(240, 240, 255)" />
 <text x="56.02" y="40.00" font-size="10" fill="rgb(0, 0, 0)">3</text>
</g>
<g>
 <rect x="81.96" y="75.02" width="10" height="10" rx="5.0" ry="5.0" fill="rgb(240, 240, 255)" />
 <text x="81.96" y="85.02" font-size="10" fill="rgb(0, 0, 0)">5</text>
</g>
<g>
 <rect x="55.97" y="90.00" width="10" height="10" rx="5.0" ry="5.0" fill="rgb(240, 240, 255)" />
 <text x="55.97" y="100.00" font-size="10" fill="rgb(0, 0, 0)">6</text>
</g>
<g>
 <rect x="30.00" y="74.98" width="10" height="10" rx="5.0" ry="5.0" fill="rgb(240, 240, 255)" />
 <text x="30.00" y="84.98" font-size="10" fill="rgb(0, 0, 0)">1</text>
</g>
</svg>
