<svg xmlns="http://www.w3.org/2000/svg"
 xmlns:xlink="http://www.w3.org/1999/xlink"
 version="1.2" baseProfile="tiny"
 text-rendering="geometricPrecision"
 preserveAspectRatio="xMidYMid meet"
 font-weight="normal"
 font-family="Helvetica"
 width="302" height="302"
 viewBox="0 0 163.92 75.06">
<rect x="0" y="0" width="163.92" height="75.06"
 fill="rgb(255, 255, 255)" opacity="0.0"/>
<line x1="109.08" y1="46.97" x2="118.17" y2="41.71" stroke="rgb(0, 0, 0)" />
<line x1="118.17" y1="41.71" x2="127.26" y2="36.45" stroke="rgb(255, 0, 0)" />
<line x1="106.83" y1="43.08" x2="115.92" y2="37.82" stroke="rgb(0, 0, 0)" />
<line x1="115.92" y1="37.82" x2="125.00" y2="32.56" stroke="rgb(255, 0, 0)" />
<line x1="55.99" y1="45.06" x2="81.96" y2="30.04" stroke="rgb(0, 0, 0)" /><line x1="81.96" y1="30.04" x2="107.95" y2="45.02" stroke="rgb(0, 0, 0)" /><line x1="30.00" y1="30.08" x2="55.99" y2="45.06" stroke="rgb(0, 0, 0)" /><text x="133.92" y="37.00" font-size="14.0"
 fill="rgb(255, 0, 0)" text-anchor="middle" >O</text>
<g>
 <rect x="107.95" y="45.02" width="10" height="10" rx="5.0" ry="5.0" fill="rgb(240, 240, 255)" />
 <text x="107.95" y="55.02" font-size="10" fill="rgb(0, 0, 0)">4</text>
</g>
<g>
 <rect x="55.99" y="45.06" width="10" height="10" rx="5.0" ry="5.0" fill="rgb(240, 240, 255)" />
 <text x="55.99" y="55.06" font-size="10" fill="rgb(0, 0, 0)">2</text>
</g>
<g>
 <rect x="81.96" y="30.04" width="10" height="10" rx="5.0" ry="5.0" fill="rgb(240, 240, 255)" />
 <text x="81.96" y="40.04" font-size="10" fill="rgb(0, 0, 0)">3</text>
</g>
<g>
 <rect x="133.92" y="37.00" width="10" height="10" rx="5.0" ry="5.0" fill="rgb(240, 240, 255)" />
 <text x="133.92" y="47.00" font-size="10" fill="rgb(0, 0, 0)">5</text>
</g>
<g>
 <rect x="30.00" y="30.08" width="10" height="10" rx="5.0" ry="5.0" fill="rgb(240, 240, 255)" />
 <text x="30.00" y="40.08" font-size="10" fill="rgb(0, 0, 0)">1</text>
</g>
</svg>
