<svg xmlns="http://www.w3.org/2000/svg"
 xmlns:xlink="http://www.w3.org/1999/xlink"
 version="1.2" baseProfile="tiny"
 text-rendering="geometricPrecision"
 preserveAspectRatio="xMidYMid meet"
 font-weight="normal"
 font-family="Helvetica"
 width="486" height="486"
 viewBox="0 0 124.87 133.59">
<rect x="0" y="0" width="124.87" height="133.59"
 fill="rgb(255, 255, 255)" opacity="0.0"/>
<line x1="81.97" y1="57.17" x2="87.17" y2="48.05" stroke="rgb(0, 0, 0)" />
<line x1="87.17" y1="48.05" x2="92.37" y2="38.93" stroke="rgb(255, 0, 0)" />
<line x1="78.06" y1="54.94" x2="83.26" y2="45.82" stroke="rgb(0, 0, 0)" />
<line x1="83.26" y1="45.82" x2="88.46" y2="36.70" stroke="rgb(255, 0, 0)" />
<line x1="70.17" y1="103.59" x2="92.36" y2="83.40" stroke="rgb(0, 0, 0)" /><line x1="50.19" y1="59.35" x2="44.11" y2="88.73" stroke="rgb(0, 0, 0)" /><line x1="44.11" y1="88.73" x2="70.17" y2="103.59" stroke="rgb(0, 0, 0)" /><line x1="41.88" y1="92.64" x2="67.94" y2="107.50" stroke="rgb(0, 0, 0)" /><line x1="46.34" y1="84.82" x2="72.40" y2="99.68" stroke="rgb(0, 0, 0)" /><line x1="92.36" y1="83.40" x2="80.01" y2="56.06" stroke="rgb(0, 0, 0)" /><line x1="80.01" y1="56.06" x2="50.19" y2="59.35" stroke="rgb(0, 0, 0)" /><line x1="36.06" y1="43.82" x2="43.12" y2="51.59" stroke="rgb(255, 0, 0)" />
<line x1="43.12" y1="51.59" x2="50.19" y2="59.35" stroke="rgb(0, 0, 0)" />
<text x="94.87" y="37.00" font-size="14.0"
 fill="rgb(255, 0, 0)" text-anchor="middle" >O</text>
<text x="37.00" y="44.16" font-size="14.0"
 fill="rgb(255, 0, 0)" text-anchor="end" >HO</text>
</svg>
