<svg xmlns="http://www.w3.org/2000/svg"
 xmlns:xlink="http://www.w3.org/1999/xlink"
 version="1.2" baseProfile="tiny"
 text-rendering="geometricPrecision"
 preserveAspectRatio="xMidYMid meet"
 font-weight="normal"
 font-family="Helvetica"
 width="400" height="400"
 viewBox="0 0 215.88 75.10">
<rect x="0" y="0" width="215.88" height="75.10"
 fill="rgb(255, 255, 255)" opacity="0.0"/>
<line x1="107.95" y1="45.07" x2="133.92" y2="30.04" stroke="rgb(0, 0, 0)" /><line x1="55.99" y1="45.10" x2="81.96" y2="30.08" stroke="rgb(0, 0, 0)" /><line x1="81.96" y1="30.08" x2="107.95" y2="45.07" stroke="rgb(0, 0, 0)" /><line x1="133.92" y1="30.04" x2="159.91" y2="45.02" stroke="rgb(0, 0, 0)" /><line x1="134.27" y1="35.44" x2="155.06" y2="47.42" stroke="rgb(0, 0, 0)" /><line x1="159.91" y1="45.02" x2="185.88" y2="30.00" stroke="rgb(0, 0, 0)" /><line x1="36.67" y1="36.57" x2="45.77" y2="41.81" stroke="rgb(255, 0, 0)" />
<line x1="45.77" y1="41.81" x2="54.87" y2="47.05" stroke="rgb(0, 0, 0)" />
<line x1="38.92" y1="32.67" x2="48.02" y2="37.91" stroke="rgb(255, 0, 0)" />
<line x1="48.02" y1="37.91" x2="57.11" y2="43.15" stroke="rgb(0, 0, 0)" />
<text x="30.00" y="37.13" font-size="14.0"
 fill="rgb(255, 0, 0)" text-anchor="middle" >O</text>
<g>
 <rect x="185.88" y="30.00" width="10" height="10" rx="5.0" ry="5.0" fill="rgb(240, 240, 255)" />
 <text x="185.88" y="40.00" font-size="10" fill="rgb(0, 0, 0)">7</text>
</g>
<g>
 <rect x="107.95" y="45.07" width="10" height="10" rx="5.0" ry="5.0" fill="rgb(240, 240, 255)" />
 <text x="107.95" y="55.07" font-size="10" fill="rgb(0, 0, 0)">4</text>
</g>
<g>
 <rect x="55.99" y="45.10" width="10" height="10" rx="5.0" ry="5.0" fill="rgb(240, 240, 255)" />
 <text x="55.99" y="55.10" font-size="10" fill="rgb(0, 0, 0)">2</text>
</g>
<g>
 <rect x="81.96" y="30.08" width="10" height="10" rx="5.0" ry="5.0" fill="rgb(240, 240, 255)" />
 <text x="81.96" y="40.08" font-size="10" fill="rgb(0, 0, 0)">3</text>
</g>
<g>
 <rect x="133.92" y="30.04" width="10" height="10" rx="5.0" ry="5.0" fill="rgb(240, 240, 255)" />
 <text x="133.92" y="40.04" font-size="10" fill="rgb(0, 0, 0)">5</text>
</g>
<g>
 <rect x="159.91" y="45.02" width="10" height="10" rx="5.0" ry="5.0" fill="rgb(240, 240, 255)" />
 <text x="159.91" y="55.02" font-size="10" fill="rgb(0, 0, 0)">6</text>
</g>
<g>
 <rect x="30.00" y="37.13" width="10" height="10" rx="5.0" ry="5.0" fill="rgb(240, 240, 255)" />
 <text x="30.00" y="47.13" font-size="10" fill="rgb(0, 0, 0)">1</text>
</g>
</svg>
